<?xml version="1.0" encoding="UTF-8"?>
<!DOCTYPE svg PUBLIC "-//W3C//DTD SVG 1.1//EN" "http://www.w3.org/Graphics/SVG/1.1/DTD/svg11.dtd">
<!-- Creator: CorelDRAW 2017 -->
<svg xmlns="http://www.w3.org/2000/svg" xml:space="preserve" width="50.8mm" height="50.8mm" version="1.1" style="shape-rendering:geometricPrecision; text-rendering:geometricPrecision; image-rendering:optimizeQuality; fill-rule:evenodd; clip-rule:evenodd"
viewBox="0 0 5080 5080"
 xmlns:xlink="http://www.w3.org/1999/xlink">
 <defs>
  <style type="text/css">
   <![CDATA[
    .fil0 {fill:#FECA01}
    .fil1 {fill:#FFCC00}
   ]]>
  </style>
 </defs>
 <g id="Capa_x0020_1">
  <metadata id="CorelCorpID_0Corel-Layer"/>
  <path class="fil0" d="M1259.79 3620.61l34.49 -48.2c57.11,-123.32 26.06,-1376.93 26.29,-1571.05 0.13,-110.8 22.67,-323.84 -16.48,-417.52l-63.87 -77.05c-15.94,65.03 -895.35,935.68 -997.51,1011.86 99.83,262.85 961.76,911.44 1017.08,1101.96z"/>
  <path class="fil0" d="M1586.33 2616.81c54.14,121.35 21.19,63.46 114.86,159.96l870.55 840.52 1.53 -993.22 -986.94 -7.26z"/>
  <path class="fil1" d="M4930.31 207.23l20.83 -18.97c-72.99,-103.16 7.12,-34.93 -113.66,-70.73l-2130.53 -4.5 7.16 2246.03c160.74,-77.33 427.03,-391.43 570.06,-536.62 243.69,-247.36 1465.54,-1515.72 1646.14,-1615.21z"/>
  <path class="fil1" d="M4767.64 4995.11l177.23 -30.42 -1746.52 -1746.62c-73.95,-74.09 -187.28,-154.1 -216.37,-255.35 -153.02,-71.97 -118.1,-114.17 -274.54,-207.27l9.64 2237.49 2050.56 2.17z"/>
  <polygon class="fil1" points="1456.73,2319.04 1467.28,2484.38 2571.31,2481.96 2568.18,1373.14 1439.21,1378.76 "/>
  <path class="fil1" d="M2458.76 4815.46c39.61,19.66 72.9,27.71 120.5,54.9 -78.6,-1038.52 187.35,-861.3 -313.72,-1354.4l-726.97 -723.11c-113.46,-56.64 -40.62,-76.58 -80.59,19.73 -19.54,986.08 -68.34,896.74 274.46,1235.93l581.55 583.23c95.3,92.92 122.67,100.42 144.77,183.72z"/>
  <path class="fil1" d="M2559.32 1222.28c24.81,-168.9 12.51,-352.28 12.12,-526.22 -0.19,-88.35 7.19,-204.78 4.24,-287.35 -4.86,-136.02 36.41,-171.55 -79.38,-159.69 -43.03,174.5 -807.7,742.01 -910.55,981.37l973.57 -8.11z"/>
 </g>
</svg>
