<?xml version="1.0" encoding="UTF-8"?>
<!DOCTYPE svg PUBLIC "-//W3C//DTD SVG 1.1//EN" "http://www.w3.org/Graphics/SVG/1.1/DTD/svg11.dtd">
<!-- Creator: CorelDRAW 2017 -->
<svg xmlns="http://www.w3.org/2000/svg" xml:space="preserve" width="279.4mm" height="279.4mm" version="1.1" style="shape-rendering:geometricPrecision; text-rendering:geometricPrecision; image-rendering:optimizeQuality; fill-rule:evenodd; clip-rule:evenodd"
viewBox="0 0 27940 27940"
 xmlns:xlink="http://www.w3.org/1999/xlink">
 <defs>
  <style type="text/css">
   <![CDATA[
    .fil3 {fill:#010080}
    .fil0 {fill:#030282}
    .fil1 {fill:#FECA01}
    .fil2 {fill:#FFCC00}
   ]]>
  </style>
 </defs>
 <g id="Capa_x0020_1">
  <metadata id="CorelCorpID_0Corel-Layer"/>
  <path class="fil0" d="M20411.63 10836.93l15.81 -225.6 -105.48 -4.16 -659.23 -0.05 -24.28 308 683.33 -2.1c163.16,-28.31 44.51,2.64 89.85,-76.09z"/>
  <path class="fil0" d="M23944.19 10801.65l1.84 -106.18c-20.75,-145.67 -176.18,-91.16 -342.87,-88.77 -135.73,1.94 -271.5,-0.2 -407.37,1.88l-17.79 299.99 742.11 4.47 24.08 -111.39z"/>
  <path class="fil1" d="M2244.04 12773.5l34.49 -48.2c57.11,-123.32 26.06,-1376.93 26.29,-1571.05 0.13,-110.8 22.67,-323.84 -16.48,-417.52l-63.87 -77.05c-15.94,65.03 -895.35,935.68 -997.51,1011.86 99.83,262.85 961.76,911.44 1017.08,1101.96z"/>
  <path class="fil1" d="M2570.58 11769.7c54.14,121.35 21.19,63.46 114.86,159.96l870.55 840.52 1.53 -993.22 -986.94 -7.26z"/>
  <path class="fil2" d="M5914.56 9360.12l20.83 -18.97c-72.99,-103.16 7.12,-34.93 -113.66,-70.73l-2130.53 -4.5 7.16 2246.03c160.74,-77.33 427.03,-391.43 570.06,-536.62 243.69,-247.36 1465.54,-1515.72 1646.14,-1615.21z"/>
  <path class="fil2" d="M5751.89 14148l177.23 -30.42 -1746.52 -1746.62c-73.95,-74.09 -187.28,-154.1 -216.37,-255.35 -153.02,-71.97 -118.1,-114.17 -274.54,-207.27l9.64 2237.49 2050.56 2.17z"/>
  <polygon class="fil2" points="2440.98,11471.93 2451.53,11637.27 3555.56,11634.85 3552.43,10526.03 2423.46,10531.65 "/>
  <path class="fil2" d="M3443.01 13968.35c39.61,19.66 72.9,27.71 120.5,54.9 -78.6,-1038.52 187.35,-861.3 -313.72,-1354.4l-726.97 -723.11c-113.46,-56.64 -40.62,-76.58 -80.59,19.73 -19.54,986.08 -68.34,896.74 274.46,1235.93l581.55 583.23c95.3,92.92 122.67,100.42 144.77,183.72z"/>
  <path class="fil2" d="M3543.57 10375.17c24.81,-168.9 12.51,-352.28 12.12,-526.22 -0.19,-88.35 7.19,-204.78 4.24,-287.35 -4.86,-136.02 36.41,-171.55 -79.38,-159.69 -43.03,174.5 -807.7,742.01 -910.55,981.37l973.57 -8.11z"/>
  <path class="fil3" d="M16103.21 11621.5c336.69,-48.62 637.67,290.95 667.65,589.96 42.71,425.99 -261.94,638.26 -667.48,557.09l-0.17 -1147.05zm962.35 1482.39c6.8,-6.87 16.41,-15.22 21.55,-19.41 165.36,-134.93 337.01,-131.8 442.15,-526.43 76,-285.27 26.95,-574.77 -112.3,-791.95 -358.28,-558.76 -1189.82,-562.7 -1282.73,-652.41 -87.33,-84.32 39.82,-471.74 -81.23,-506.34l-694.32 -1.51c-74.66,262.22 -23.39,2178.79 -22.8,2607.18 308.29,-1.64 621.62,5.32 929.05,-2.42 267.41,-6.73 646.2,-111.13 800.63,-106.71z"/>
  <path class="fil3" d="M22112.62 11615.66l-3.04 1156.17c-1030.31,155.23 -759.91,-1205.2 3.04,-1156.17zm-1044.34 1455.03c157.49,1.94 514.66,125.85 804.73,137.75 333.12,13.65 673.66,-21.05 1003.89,15.79 -2.92,-434.74 52.2,-2357.86 -24.57,-2618.1l-720.27 0.94 -28.2 524.17c-850.04,136.5 -1605.53,491.87 -1433.76,1371.62 81.56,417.72 290.36,435.68 398.18,567.83z"/>
  <path class="fil3" d="M13007.95 11178.44c-29.32,315.59 -5.31,741.21 -5.77,1069.46 -0.57,409.49 -9.8,642.75 258.8,816.34 239.92,155.05 574.99,207.98 923.51,188.77 227.58,-12.55 288.7,-42.42 483.71,-100.49 195.2,-58.12 233.65,13.44 431.54,51.74l-13.17 -2036.46 -744.5 4.36c-91.12,751.88 198.4,1623.92 -299.32,1608.73 -452.96,-13.83 -168.88,-889.58 -262.47,-1613.71l-772.33 11.26z"/>
  <path class="fil3" d="M24953.41 12353.7c-72.15,-1038.2 473.02,-1044.03 524.69,-354.3 83.25,1111.19 -478.2,1023.31 -524.69,354.3zm1294.18 105.83c319.37,-1553.5 -1752.55,-1785.63 -2032.25,-587.89 -369.73,1583.26 1768.36,1871.46 2032.25,587.89z"/>
  <path class="fil3" d="M8492.85 12459.53c-141.51,-1047.19 424.69,-1183.75 507.42,-564.16 152.99,1145.82 -429.37,1141.74 -507.42,564.16zm1299.69 -70.56c235.11,-1515.82 -1845.44,-1704.11 -2061.29,-454.26 -119.77,693.44 224.78,1210.04 807.78,1303.89 689.89,111.07 1160.98,-253.03 1253.51,-849.63z"/>
  <path class="fil3" d="M7534.83 12757.23c-474.42,-123.76 -964.74,-313.56 -960.85,-862.31 3.93,-552.08 478.58,-723.56 966.95,-853.89l1.29 -455.23c-448.47,-64.87 -965.5,147.37 -1244.44,338.4 -1065.78,729.9 -529.7,2338.59 1240.22,2325.1l-3.17 -492.07z"/>
  <path class="fil3" d="M11077.8 13165.08c643.64,238.03 1879.05,110.88 1750.29,-691.69 -60.53,-377.31 -426.09,-423.38 -738.17,-565.43 -178.43,-81.21 -305.12,-265.96 -76.51,-344.22 166.54,-57.02 423.27,-0.33 597.53,20.45l-18.94 -393.59c-1380.5,-303.67 -1784.7,470.82 -1333.1,807.28 200.01,149.02 769.87,297.48 803.18,539.43 58.1,421.91 -703.36,269.91 -989.22,220.22l4.94 407.55z"/>
  <path class="fil3" d="M18698.83 13242.95c219.72,-58.3 273.45,-54.87 468.43,-165.01 126.26,-96.66 240.97,-180.17 269.83,-409.83 94.47,-751.62 -1031.26,-659.11 -932.93,-1008.06 143.7,-199.78 452.61,-109.05 714.96,-87.51l-23.29 -386.63c-342.25,-49.72 -577.75,-107.08 -946.51,-25.26 -267.68,59.4 -537.32,196.66 -560.23,461.14 -54.87,633.27 1038.72,456.4 973.12,1060.07 -332.26,256.47 -582.72,119.82 -979.06,82.66l-15.42 411.53c391.65,54.61 607.77,91.77 1031.1,66.9z"/>
  <polygon class="fil3" points="10000.29,13209.37 10771.74,13212.6 10786.98,10610.59 10008.78,10608.22 "/>
  <polygon class="fil3" points="19629.55,13224.2 20410.41,13213.75 20411.56,11178.2 19643.25,11178.39 "/>
  <path class="fil3" d="M23945.04 11259.91c-24.8,-139.7 -176.59,-84.71 -341.82,-82.35 -137.41,1.96 -275.11,-0.4 -412.66,1.3 -29.64,223.26 -35.8,1878.63 12.14,2033.96l739.69 -2.77 2.65 -1950.14z"/>
 </g>
</svg>
